<?xml version="1.0" standalone="no"?>
<!DOCTYPE svg PUBLIC "-//W3C//DTD SVG 20010904//EN"
 "http://www.w3.org/TR/2001/REC-SVG-20010904/DTD/svg10.dtd">
<svg version="1.0" xmlns="http://www.w3.org/2000/svg"
 width="512.000000pt" height="512.000000pt" viewBox="0 0 512.000000 512.000000"
 preserveAspectRatio="xMidYMid meet">
<metadata>
Created by potrace 1.14, written by Peter Selinger 2001-2017
</metadata>
<g transform="translate(0.000000,512.000000) scale(0.100000,-0.100000)"
fill="#000000" stroke="none">
<path d="M902 3651 c-10 -6 184 -207 715 -740 l730 -732 211 -2 212 -2 732
733 c572 573 729 735 718 742 -19 12 -3300 13 -3318 1z"/>
<path d="M898 2568 c-2 -403 -1 -743 2 -755 4 -19 61 34 384 356 l378 378
-375 377 c-207 207 -378 376 -381 376 -3 0 -7 -330 -8 -732z"/>
<path d="M3832 2925 l-373 -374 375 -376 c206 -206 378 -375 381 -375 3 0 5
338 5 750 0 413 -4 750 -8 750 -4 0 -175 -169 -380 -375z"/>
<path d="M3070 2165 l-225 -226 -285 3 -285 2 -45 41 c-24 22 -124 120 -222
218 -98 97 -182 177 -188 177 -5 0 -207 -196 -448 -435 -240 -239 -445 -442
-455 -451 -11 -9 -15 -20 -10 -25 9 -9 3301 -14 3310 -5 4 4 -912 926 -920
926 -1 0 -103 -101 -227 -225z"/>
</g>
</svg>
