<?xml version="1.0" standalone="no"?>
<!DOCTYPE svg PUBLIC "-//W3C//DTD SVG 20010904//EN"
 "http://www.w3.org/TR/2001/REC-SVG-20010904/DTD/svg10.dtd">
<svg version="1.0" xmlns="http://www.w3.org/2000/svg"
 width="176.000000pt" height="176.000000pt" viewBox="0 0 176.000000 176.000000"
 preserveAspectRatio="xMidYMid meet">
<metadata>
Created by potrace 1.14, written by Peter Selinger 2001-2017
</metadata>
<g transform="translate(0.000000,176.000000) scale(0.100000,-0.100000)"
fill="#000000" stroke="none">
<path d="M852 1658 c-6 -8 -16 -35 -21 -59 -12 -60 -44 -166 -79 -269 -16 -47
-39 -116 -52 -155 -12 -38 -29 -77 -37 -86 -11 -14 -12 -18 -1 -22 40 -16 -38
-22 -290 -20 -189 1 -288 5 -302 13 -26 14 -38 5 -24 -18 6 -9 98 -79 205
-154 261 -184 279 -198 279 -218 0 -10 -31 -113 -70 -229 -38 -117 -70 -220
-70 -229 0 -10 -4 -22 -9 -27 -11 -13 -30 -93 -23 -100 14 -14 46 6 271 170
133 96 245 175 251 175 5 0 114 -77 242 -171 231 -170 266 -193 280 -180 8 7
-8 88 -23 110 -9 14 -10 14 -5 -1 3 -9 8 -34 11 -55 6 -37 6 -37 -10 -18 -29
34 -65 122 -136 335 -38 113 -69 208 -69 213 0 4 9 7 19 7 14 0 24 -13 36 -51
9 -28 19 -48 21 -46 3 2 -2 24 -10 47 -22 65 -32 55 224 230 191 130 206 140
246 174 36 30 45 50 17 39 -11 -4 -14 -3 -9 5 7 12 -5 12 -314 -8 -140 -9
-365 -42 -412 -61 -15 -6 -38 -25 -51 -43 -34 -44 -87 -146 -87 -166 0 -10 -9
-29 -21 -43 -11 -15 -19 -34 -17 -44 5 -32 -120 -81 -137 -53 -3 6 -12 10 -20
10 -19 0 -83 -67 -106 -111 -16 -33 -49 -60 -49 -40 0 25 54 159 75 187 14 18
25 37 25 43 0 6 5 11 10 11 6 0 10 7 10 17 0 14 112 133 126 133 3 0 24 18 48
40 24 22 59 53 79 68 20 15 45 39 57 54 11 15 27 25 34 22 8 -3 16 4 19 15 3
12 1 21 -4 21 -5 0 -4 11 1 25 6 16 6 25 0 25 -5 0 -7 6 -4 14 3 8 -13 90 -35
183 -23 93 -41 180 -41 194 0 13 -6 34 -14 45 -8 11 -16 30 -18 43 -3 21 -5
22 -16 9z"/>
<path d="M901 1648 c0 -7 4 -22 9 -33 8 -18 9 -17 9 7 1 15 -3 30 -9 33 -5 3
-10 0 -9 -7z"/>
<path d="M937 1525 c3 -16 12 -43 20 -60 l14 -30 -7 35 c-3 19 -13 46 -20 60
l-14 25 7 -30z"/>
<path d="M442 1073 c32 -2 84 -2 115 0 32 2 6 3 -57 3 -63 0 -89 -1 -58 -3z"/>
<path d="M1353 1073 c9 -2 23 -2 30 0 6 3 -1 5 -18 5 -16 0 -22 -2 -12 -5z"/>
<path d="M1261 525 c1 -19 18 -51 18 -35 0 8 -4 22 -9 30 -5 8 -9 11 -9 5z"/>
<path d="M1291 435 c1 -19 18 -51 18 -35 0 8 -4 22 -9 30 -5 8 -9 11 -9 5z"/>
</g>
</svg>
